<?xml version="1.0" encoding="UTF-8" standalone="no"?>
<!-- Created with Inkscape (http://www.inkscape.org/) -->

<svg
   width="210mm"
   height="297mm"
   viewBox="0 0 210 297"
   version="1.1"
   id="svg5"
   inkscape:version="1.1.2 (0a00cf5339, 2022-02-04, custom)"
   sodipodi:docname="drawing.svg"
   xmlns:inkscape="http://www.inkscape.org/namespaces/inkscape"
   xmlns:sodipodi="http://sodipodi.sourceforge.net/DTD/sodipodi-0.dtd"
   xmlns:xlink="http://www.w3.org/1999/xlink"
   xmlns="http://www.w3.org/2000/svg"
   xmlns:svg="http://www.w3.org/2000/svg">
  <sodipodi:namedview
     id="namedview7"
     pagecolor="#ffffff"
     bordercolor="#666666"
     borderopacity="1.0"
     inkscape:pageshadow="2"
     inkscape:pageopacity="0.0"
     inkscape:pagecheckerboard="0"
     inkscape:document-units="mm"
     showgrid="false"
     inkscape:snap-bbox="true"
     inkscape:snap-bbox-edge-midpoints="true"
     inkscape:snap-smooth-nodes="true"
     inkscape:bbox-paths="true"
     inkscape:bbox-nodes="true"
     inkscape:object-paths="true"
     inkscape:snap-intersection-paths="true"
     inkscape:zoom="2"
     inkscape:cx="311.25"
     inkscape:cy="380"
     inkscape:window-width="1916"
     inkscape:window-height="1051"
     inkscape:window-x="0"
     inkscape:window-y="25"
     inkscape:window-maximized="1"
     inkscape:current-layer="layer1"
     inkscape:snap-midpoints="true"
     inkscape:snap-bbox-midpoints="true"
     inkscape:snap-object-midpoints="false"
     inkscape:snap-center="false"
     inkscape:snap-global="true"
     inkscape:snap-others="true"
     inkscape:snap-nodes="true"
     inkscape:object-nodes="true"
     inkscape:snap-to-guides="true" />
  <defs
     id="defs2">
    <linearGradient
       id="linearGradient54885"
       inkscape:swatch="gradient">
      <stop
         style="stop-color:#000000;stop-opacity:1;"
         offset="0"
         id="stop54881" />
      <stop
         style="stop-color:#000000;stop-opacity:0;"
         offset="1"
         id="stop54883" />
    </linearGradient>
    <linearGradient
       id="linearGradient54863"
       inkscape:swatch="solid">
      <stop
         style="stop-color:#000000;stop-opacity:1;"
         offset="0"
         id="stop54861" />
    </linearGradient>
    <g
       id="g2485">
      <g
         id="g2396" />
      <g
         id="g694">
        <path
           d="M 3.78125 -0.546875 L 3.78125 0.109375 L 5.25 0 L 5.25 -0.3125 C 4.5625 -0.3125 4.46875 -0.375 4.46875 -0.875 L 4.46875 -6.921875 L 3.046875 -6.8125 L 3.046875 -6.5 C 3.734375 -6.5 3.8125 -6.4375 3.8125 -5.9375 L 3.8125 -3.78125 C 3.53125 -4.140625 3.09375 -4.40625 2.5625 -4.40625 C 1.390625 -4.40625 0.34375 -3.421875 0.34375 -2.140625 C 0.34375 -0.875 1.3125 0.109375 2.453125 0.109375 C 3.09375 0.109375 3.53125 -0.234375 3.78125 -0.546875 Z M 3.78125 -3.21875 L 3.78125 -1.171875 C 3.78125 -1 3.78125 -0.984375 3.671875 -0.8125 C 3.375 -0.328125 2.9375 -0.109375 2.5 -0.109375 C 2.046875 -0.109375 1.6875 -0.375 1.453125 -0.75 C 1.203125 -1.15625 1.171875 -1.71875 1.171875 -2.140625 C 1.171875 -2.5 1.1875 -3.09375 1.46875 -3.546875 C 1.6875 -3.859375 2.0625 -4.1875 2.609375 -4.1875 C 2.953125 -4.1875 3.375 -4.03125 3.671875 -3.59375 C 3.78125 -3.421875 3.78125 -3.40625 3.78125 -3.21875 Z M 3.78125 -3.21875 "
           id="path166" />
      </g>
      <g
         id="g7373">
        <path
           d="M 3.890625 -4 C 3.984375 -4.109375 3.984375 -4.125 3.984375 -4.171875 C 3.984375 -4.296875 3.890625 -4.296875 3.71875 -4.296875 L 0.53125 -4.296875 L 0.421875 -2.6875 L 0.671875 -2.6875 C 0.734375 -3.703125 0.921875 -4.078125 2.015625 -4.078125 L 3.15625 -4.078125 L 0.375 -0.3125 C 0.28125 -0.203125 0.28125 -0.1875 0.28125 -0.140625 C 0.28125 0 0.34375 0 0.53125 0 L 3.828125 0 L 4 -1.859375 L 3.75 -1.859375 C 3.65625 -0.6875 3.453125 -0.25 2.296875 -0.25 L 1.109375 -0.25 Z M 3.890625 -4 "
           id="path505" />
      </g>
    </g>
    <g
       id="g8952">
      <g
         id="g6658" />
      <g
         id="g5112">
        <path
           d="M 5.140625 -6.8125 C 5.140625 -6.8125 5.140625 -6.921875 5.015625 -6.921875 C 4.859375 -6.921875 3.921875 -6.828125 3.75 -6.8125 C 3.671875 -6.796875 3.609375 -6.75 3.609375 -6.625 C 3.609375 -6.5 3.703125 -6.5 3.84375 -6.5 C 4.328125 -6.5 4.34375 -6.4375 4.34375 -6.328125 L 4.3125 -6.125 L 3.71875 -3.765625 C 3.53125 -4.140625 3.25 -4.40625 2.796875 -4.40625 C 1.640625 -4.40625 0.40625 -2.9375 0.40625 -1.484375 C 0.40625 -0.546875 0.953125 0.109375 1.71875 0.109375 C 1.921875 0.109375 2.421875 0.0625 3.015625 -0.640625 C 3.09375 -0.21875 3.453125 0.109375 3.921875 0.109375 C 4.28125 0.109375 4.5 -0.125 4.671875 -0.4375 C 4.828125 -0.796875 4.96875 -1.40625 4.96875 -1.421875 C 4.96875 -1.53125 4.875 -1.53125 4.84375 -1.53125 C 4.75 -1.53125 4.734375 -1.484375 4.703125 -1.34375 C 4.53125 -0.703125 4.359375 -0.109375 3.953125 -0.109375 C 3.671875 -0.109375 3.65625 -0.375 3.65625 -0.5625 C 3.65625 -0.8125 3.671875 -0.875 3.703125 -1.046875 Z M 3.078125 -1.1875 C 3.015625 -1 3.015625 -0.984375 2.875 -0.8125 C 2.4375 -0.265625 2.03125 -0.109375 1.75 -0.109375 C 1.25 -0.109375 1.109375 -0.65625 1.109375 -1.046875 C 1.109375 -1.546875 1.421875 -2.765625 1.65625 -3.234375 C 1.96875 -3.8125 2.40625 -4.1875 2.8125 -4.1875 C 3.453125 -4.1875 3.59375 -3.375 3.59375 -3.3125 C 3.59375 -3.25 3.578125 -3.1875 3.5625 -3.140625 Z M 3.078125 -1.1875 "
           id="path9149" />
      </g>
      <g
         id="g4159">
        <path
           d="M 1.328125 -0.828125 C 1.859375 -1.40625 2.15625 -1.65625 2.515625 -1.96875 C 2.515625 -1.96875 3.125 -2.5 3.484375 -2.859375 C 4.4375 -3.78125 4.65625 -4.265625 4.65625 -4.3125 C 4.65625 -4.40625 4.5625 -4.40625 4.546875 -4.40625 C 4.46875 -4.40625 4.453125 -4.390625 4.390625 -4.296875 C 4.09375 -3.8125 3.890625 -3.65625 3.65625 -3.65625 C 3.40625 -3.65625 3.296875 -3.8125 3.140625 -3.984375 C 2.953125 -4.203125 2.78125 -4.40625 2.453125 -4.40625 C 1.703125 -4.40625 1.25 -3.484375 1.25 -3.265625 C 1.25 -3.21875 1.28125 -3.15625 1.359375 -3.15625 C 1.453125 -3.15625 1.46875 -3.203125 1.5 -3.265625 C 1.6875 -3.734375 2.265625 -3.734375 2.34375 -3.734375 C 2.546875 -3.734375 2.734375 -3.671875 2.96875 -3.59375 C 3.375 -3.4375 3.484375 -3.4375 3.734375 -3.4375 C 3.375 -3.015625 2.546875 -2.296875 2.359375 -2.140625 L 1.453125 -1.296875 C 0.78125 -0.625 0.421875 -0.0625 0.421875 0.015625 C 0.421875 0.109375 0.53125 0.109375 0.546875 0.109375 C 0.625 0.109375 0.640625 0.09375 0.703125 -0.015625 C 0.9375 -0.375 1.234375 -0.640625 1.5625 -0.640625 C 1.78125 -0.640625 1.890625 -0.546875 2.140625 -0.265625 C 2.296875 -0.046875 2.484375 0.109375 2.765625 0.109375 C 3.765625 0.109375 4.34375 -1.15625 4.34375 -1.421875 C 4.34375 -1.46875 4.296875 -1.53125 4.21875 -1.53125 C 4.125 -1.53125 4.109375 -1.46875 4.078125 -1.390625 C 3.84375 -0.75 3.203125 -0.5625 2.875 -0.5625 C 2.6875 -0.5625 2.5 -0.625 2.296875 -0.6875 C 1.953125 -0.8125 1.796875 -0.859375 1.59375 -0.859375 C 1.578125 -0.859375 1.421875 -0.859375 1.328125 -0.828125 Z M 1.328125 -0.828125 "
           id="path4456" />
      </g>
      <g
         id="g4635">
        <path
           d="M 1.78125 -1.140625 C 1.390625 -0.484375 1 -0.34375 0.5625 -0.3125 C 0.4375 -0.296875 0.34375 -0.296875 0.34375 -0.109375 C 0.34375 -0.046875 0.40625 0 0.484375 0 C 0.75 0 1.0625 -0.03125 1.328125 -0.03125 C 1.671875 -0.03125 2.015625 0 2.328125 0 C 2.390625 0 2.515625 0 2.515625 -0.1875 C 2.515625 -0.296875 2.4375 -0.3125 2.359375 -0.3125 C 2.140625 -0.328125 1.890625 -0.40625 1.890625 -0.65625 C 1.890625 -0.78125 1.953125 -0.890625 2.03125 -1.03125 L 2.796875 -2.296875 L 5.296875 -2.296875 C 5.3125 -2.09375 5.453125 -0.734375 5.453125 -0.640625 C 5.453125 -0.34375 4.9375 -0.3125 4.734375 -0.3125 C 4.59375 -0.3125 4.5 -0.3125 4.5 -0.109375 C 4.5 0 4.609375 0 4.640625 0 C 5.046875 0 5.46875 -0.03125 5.875 -0.03125 C 6.125 -0.03125 6.765625 0 7.015625 0 C 7.0625 0 7.1875 0 7.1875 -0.203125 C 7.1875 -0.3125 7.09375 -0.3125 6.953125 -0.3125 C 6.34375 -0.3125 6.34375 -0.375 6.3125 -0.671875 L 5.703125 -6.890625 C 5.6875 -7.09375 5.6875 -7.140625 5.515625 -7.140625 C 5.359375 -7.140625 5.3125 -7.0625 5.25 -6.96875 Z M 2.984375 -2.609375 L 4.9375 -5.90625 L 5.265625 -2.609375 Z M 2.984375 -2.609375 "
           id="path5970" />
      </g>
      <g
         id="g6558" />
      <g
         id="g1475">
        <path
           d="M 3.671875 -2.21875 C 3.71875 -2.40625 3.796875 -2.75 3.796875 -2.78125 C 3.796875 -2.921875 3.6875 -3 3.5625 -3 C 3.4375 -3 3.3125 -2.921875 3.265625 -2.796875 C 3.25 -2.75 3.171875 -2.453125 3.125 -2.28125 C 3.03125 -1.875 3.03125 -1.875 2.921875 -1.484375 C 2.84375 -1.09375 2.828125 -1.03125 2.8125 -0.84375 C 2.84375 -0.703125 2.78125 -0.5625 2.625 -0.359375 C 2.53125 -0.25 2.390625 -0.125 2.15625 -0.125 C 1.875 -0.125 1.53125 -0.21875 1.53125 -0.765625 C 1.53125 -1.125 1.71875 -1.640625 1.859375 -2 C 1.984375 -2.296875 2 -2.359375 2 -2.484375 C 2 -2.8125 1.71875 -3.078125 1.34375 -3.078125 C 0.640625 -3.078125 0.328125 -2.125 0.328125 -2 C 0.328125 -1.921875 0.421875 -1.921875 0.453125 -1.921875 C 0.546875 -1.921875 0.546875 -1.953125 0.578125 -2.03125 C 0.75 -2.609375 1.046875 -2.875 1.328125 -2.875 C 1.4375 -2.875 1.5 -2.796875 1.5 -2.640625 C 1.5 -2.46875 1.4375 -2.328125 1.40625 -2.234375 C 1 -1.21875 1 -1.078125 1 -0.859375 C 1 -0.03125 1.75 0.0625 2.125 0.0625 C 2.265625 0.0625 2.59375 0.0625 2.90625 -0.390625 C 3.078125 -0.078125 3.453125 0.0625 3.875 0.0625 C 4.5 0.0625 4.8125 -0.46875 4.953125 -0.75 C 5.25 -1.34375 5.4375 -2.203125 5.4375 -2.53125 C 5.4375 -3.046875 5.140625 -3.078125 5.09375 -3.078125 C 4.90625 -3.078125 4.703125 -2.890625 4.703125 -2.703125 C 4.703125 -2.59375 4.78125 -2.53125 4.828125 -2.5 C 5 -2.359375 5.09375 -2.15625 5.09375 -1.9375 C 5.09375 -1.84375 4.796875 -0.125 3.90625 -0.125 C 3.34375 -0.125 3.34375 -0.625 3.34375 -0.75 C 3.34375 -0.9375 3.375 -1.046875 3.46875 -1.4375 Z M 3.671875 -2.21875 "
           id="path6589" />
      </g>
    </g>
    <g
       id="g3909">
      <g
         id="g4786" />
      <g
         id="g7374">
        <path
           d="M 5.140625 -6.8125 C 5.140625 -6.8125 5.140625 -6.921875 5.015625 -6.921875 C 4.859375 -6.921875 3.921875 -6.828125 3.75 -6.8125 C 3.671875 -6.796875 3.609375 -6.75 3.609375 -6.625 C 3.609375 -6.5 3.703125 -6.5 3.84375 -6.5 C 4.328125 -6.5 4.34375 -6.4375 4.34375 -6.328125 L 4.3125 -6.125 L 3.71875 -3.765625 C 3.53125 -4.140625 3.25 -4.40625 2.796875 -4.40625 C 1.640625 -4.40625 0.40625 -2.9375 0.40625 -1.484375 C 0.40625 -0.546875 0.953125 0.109375 1.71875 0.109375 C 1.921875 0.109375 2.421875 0.0625 3.015625 -0.640625 C 3.09375 -0.21875 3.453125 0.109375 3.921875 0.109375 C 4.28125 0.109375 4.5 -0.125 4.671875 -0.4375 C 4.828125 -0.796875 4.96875 -1.40625 4.96875 -1.421875 C 4.96875 -1.53125 4.875 -1.53125 4.84375 -1.53125 C 4.75 -1.53125 4.734375 -1.484375 4.703125 -1.34375 C 4.53125 -0.703125 4.359375 -0.109375 3.953125 -0.109375 C 3.671875 -0.109375 3.65625 -0.375 3.65625 -0.5625 C 3.65625 -0.8125 3.671875 -0.875 3.703125 -1.046875 Z M 3.078125 -1.1875 C 3.015625 -1 3.015625 -0.984375 2.875 -0.8125 C 2.4375 -0.265625 2.03125 -0.109375 1.75 -0.109375 C 1.25 -0.109375 1.109375 -0.65625 1.109375 -1.046875 C 1.109375 -1.546875 1.421875 -2.765625 1.65625 -3.234375 C 1.96875 -3.8125 2.40625 -4.1875 2.8125 -4.1875 C 3.453125 -4.1875 3.59375 -3.375 3.59375 -3.3125 C 3.59375 -3.25 3.578125 -3.1875 3.5625 -3.140625 Z M 3.078125 -1.1875 "
           id="path4941" />
      </g>
      <g
         id="g4524">
        <path
           d="M 1.328125 -0.828125 C 1.859375 -1.40625 2.15625 -1.65625 2.515625 -1.96875 C 2.515625 -1.96875 3.125 -2.5 3.484375 -2.859375 C 4.4375 -3.78125 4.65625 -4.265625 4.65625 -4.3125 C 4.65625 -4.40625 4.5625 -4.40625 4.546875 -4.40625 C 4.46875 -4.40625 4.453125 -4.390625 4.390625 -4.296875 C 4.09375 -3.8125 3.890625 -3.65625 3.65625 -3.65625 C 3.40625 -3.65625 3.296875 -3.8125 3.140625 -3.984375 C 2.953125 -4.203125 2.78125 -4.40625 2.453125 -4.40625 C 1.703125 -4.40625 1.25 -3.484375 1.25 -3.265625 C 1.25 -3.21875 1.28125 -3.15625 1.359375 -3.15625 C 1.453125 -3.15625 1.46875 -3.203125 1.5 -3.265625 C 1.6875 -3.734375 2.265625 -3.734375 2.34375 -3.734375 C 2.546875 -3.734375 2.734375 -3.671875 2.96875 -3.59375 C 3.375 -3.4375 3.484375 -3.4375 3.734375 -3.4375 C 3.375 -3.015625 2.546875 -2.296875 2.359375 -2.140625 L 1.453125 -1.296875 C 0.78125 -0.625 0.421875 -0.0625 0.421875 0.015625 C 0.421875 0.109375 0.53125 0.109375 0.546875 0.109375 C 0.625 0.109375 0.640625 0.09375 0.703125 -0.015625 C 0.9375 -0.375 1.234375 -0.640625 1.5625 -0.640625 C 1.78125 -0.640625 1.890625 -0.546875 2.140625 -0.265625 C 2.296875 -0.046875 2.484375 0.109375 2.765625 0.109375 C 3.765625 0.109375 4.34375 -1.15625 4.34375 -1.421875 C 4.34375 -1.46875 4.296875 -1.53125 4.21875 -1.53125 C 4.125 -1.53125 4.109375 -1.46875 4.078125 -1.390625 C 3.84375 -0.75 3.203125 -0.5625 2.875 -0.5625 C 2.6875 -0.5625 2.5 -0.625 2.296875 -0.6875 C 1.953125 -0.8125 1.796875 -0.859375 1.59375 -0.859375 C 1.578125 -0.859375 1.421875 -0.859375 1.328125 -0.828125 Z M 1.328125 -0.828125 "
           id="path8134" />
      </g>
      <g
         id="g7314">
        <path
           d="M 1.78125 -1.140625 C 1.390625 -0.484375 1 -0.34375 0.5625 -0.3125 C 0.4375 -0.296875 0.34375 -0.296875 0.34375 -0.109375 C 0.34375 -0.046875 0.40625 0 0.484375 0 C 0.75 0 1.0625 -0.03125 1.328125 -0.03125 C 1.671875 -0.03125 2.015625 0 2.328125 0 C 2.390625 0 2.515625 0 2.515625 -0.1875 C 2.515625 -0.296875 2.4375 -0.3125 2.359375 -0.3125 C 2.140625 -0.328125 1.890625 -0.40625 1.890625 -0.65625 C 1.890625 -0.78125 1.953125 -0.890625 2.03125 -1.03125 L 2.796875 -2.296875 L 5.296875 -2.296875 C 5.3125 -2.09375 5.453125 -0.734375 5.453125 -0.640625 C 5.453125 -0.34375 4.9375 -0.3125 4.734375 -0.3125 C 4.59375 -0.3125 4.5 -0.3125 4.5 -0.109375 C 4.5 0 4.609375 0 4.640625 0 C 5.046875 0 5.46875 -0.03125 5.875 -0.03125 C 6.125 -0.03125 6.765625 0 7.015625 0 C 7.0625 0 7.1875 0 7.1875 -0.203125 C 7.1875 -0.3125 7.09375 -0.3125 6.953125 -0.3125 C 6.34375 -0.3125 6.34375 -0.375 6.3125 -0.671875 L 5.703125 -6.890625 C 5.6875 -7.09375 5.6875 -7.140625 5.515625 -7.140625 C 5.359375 -7.140625 5.3125 -7.0625 5.25 -6.96875 Z M 2.984375 -2.609375 L 4.9375 -5.90625 L 5.265625 -2.609375 Z M 2.984375 -2.609375 "
           id="path9714" />
      </g>
      <g
         id="g5350" />
      <g
         id="g6818">
        <path
           d="M 7.21875 -3.9375 L 7.34375 -4.125 C 7.484375 -4.3125 7.65625 -4.484375 8 -4.515625 C 8.078125 -4.515625 8.15625 -4.515625 8.15625 -4.65625 C 8.15625 -4.703125 8.125 -4.765625 8.0625 -4.765625 C 7.90625 -4.765625 7.703125 -4.734375 7.53125 -4.734375 C 7.296875 -4.734375 6.984375 -4.765625 6.765625 -4.765625 C 6.71875 -4.765625 6.609375 -4.765625 6.609375 -4.609375 C 6.609375 -4.515625 6.703125 -4.515625 6.734375 -4.515625 C 6.890625 -4.5 7.125 -4.453125 7.125 -4.265625 C 7.125 -4.1875 7.046875 -4.0625 7.015625 -4.015625 L 5.046875 -0.78125 L 4.671875 -4.3125 C 4.671875 -4.5 5.078125 -4.515625 5.15625 -4.515625 C 5.25 -4.515625 5.34375 -4.515625 5.34375 -4.65625 C 5.34375 -4.671875 5.34375 -4.765625 5.21875 -4.765625 C 5.09375 -4.765625 4.921875 -4.75 4.796875 -4.734375 C 4.65625 -4.734375 4.46875 -4.734375 4.328125 -4.734375 C 4.171875 -4.734375 3.765625 -4.765625 3.609375 -4.765625 C 3.5625 -4.765625 3.46875 -4.765625 3.46875 -4.609375 C 3.46875 -4.515625 3.546875 -4.515625 3.640625 -4.515625 C 3.9375 -4.515625 3.984375 -4.453125 4 -4.390625 C 4 -4.34375 4.015625 -4.15625 4.046875 -3.9375 L 2.125 -0.78125 L 1.765625 -4.203125 C 1.765625 -4.234375 1.75 -4.296875 1.75 -4.3125 C 1.75 -4.515625 2.1875 -4.515625 2.234375 -4.515625 C 2.328125 -4.515625 2.421875 -4.515625 2.421875 -4.65625 C 2.421875 -4.6875 2.40625 -4.765625 2.3125 -4.765625 C 2.109375 -4.765625 1.609375 -4.734375 1.421875 -4.734375 C 1.1875 -4.734375 0.890625 -4.765625 0.6875 -4.765625 C 0.609375 -4.765625 0.546875 -4.734375 0.546875 -4.609375 C 0.546875 -4.515625 0.625 -4.515625 0.734375 -4.515625 C 1.0625 -4.515625 1.0625 -4.46875 1.09375 -4.296875 L 1.546875 -0.046875 C 1.5625 0.09375 1.578125 0.140625 1.703125 0.140625 C 1.8125 0.140625 1.875 0.078125 1.90625 0 L 4.078125 -3.578125 L 4.46875 -0.046875 C 4.484375 0.109375 4.515625 0.140625 4.625 0.140625 C 4.734375 0.140625 4.78125 0.078125 4.828125 0 Z M 7.21875 -3.9375 "
           id="path1622" />
      </g>
    </g>
  </defs>
  <g
     inkscape:label="Layer 1"
     inkscape:groupmode="layer"
     id="layer1">
    <path
       style="fill:#00ffff;stroke:#000000;stroke-width:0.264583px;stroke-linecap:butt;stroke-linejoin:miter;stroke-opacity:1;fill-opacity:0.21158408"
       d="m 28.453906,133.55777 0,2.8784 H 86.922657 L 128.63333,112.3545 v -2.8784 H 70.164573 l -41.710667,24.08167"
       id="path58680"
       sodipodi:nodetypes="ccccccc"
       inkscape:export-filename="/home/bedw/Documents/Universidad/MeteorologiaF/Tarea2/dVW.png"
       inkscape:export-xdpi="96"
       inkscape:export-ydpi="96" />
    <path
       style="fill:none;stroke:#000000;stroke-width:0.264583px;stroke-linecap:butt;stroke-linejoin:miter;stroke-opacity:1"
       d="m 86.818389,130.95486 v 5.52423"
       id="path2184"
       inkscape:export-filename="/home/bedw/Documents/Universidad/MeteorologiaF/Tarea2/dVW.png"
       inkscape:export-xdpi="96"
       inkscape:export-ydpi="96" />
    <path
       id="rect46614"
       style="fill:none;stroke:#000000;stroke-width:0.177344;stroke-linecap:square;stroke-linejoin:miter;stroke-miterlimit:5.9;stroke-dasharray:none"
       d="m 129.64345,109.34605 c 0.83424,0 0.39678,1.22381 1.11925,1.50409 -0.72247,0.28027 -0.28501,1.50409 -1.11925,1.50409"
       sodipodi:nodetypes="ccc"
       inkscape:export-filename="/home/bedw/Documents/Universidad/MeteorologiaF/Tarea2/dVW.png"
       inkscape:export-xdpi="96"
       inkscape:export-ydpi="96" />
    <g
       fill="#000000"
       fill-opacity="1"
       id="g5476"
       transform="matrix(0.5940862,0,0,0.5940862,99.741711,47.927302)"
       inkscape:export-filename="/home/bedw/Documents/Universidad/MeteorologiaF/Tarea2/dV.png"
       inkscape:export-xdpi="96"
       inkscape:export-ydpi="96">
      <use
         xlink:href="#g7374"
         x="91.925003"
         y="81.962997"
         id="use6215"
         width="100%"
         height="100%" />
      <use
         xlink:href="#g4524"
         x="97.110535"
         y="81.962997"
         id="use4389"
         width="100%"
         height="100%" />
    </g>
    <g
       fill="#000000"
       fill-opacity="1"
       id="g5325"
       transform="matrix(0.5940862,0,0,0.5940862,71.782755,63.775802)"
       inkscape:export-filename="/home/bedw/Documents/Universidad/MeteorologiaF/Tarea2/dVW.png"
       inkscape:export-xdpi="96"
       inkscape:export-ydpi="96">
      <use
         xlink:href="#g7374"
         x="102.1825"
         y="81.962997"
         id="use7895"
         width="100%"
         height="100%" />
      <use
         xlink:href="#g4524"
         x="107.36803"
         y="81.962997"
         id="use5359"
         width="100%"
         height="100%" />
    </g>
    <g
       fill="#000000"
       fill-opacity="1"
       id="g6230"
       transform="matrix(0.5940862,0,0,0.5940862,71.782755,63.775802)"
       inkscape:export-filename="/home/bedw/Documents/Universidad/MeteorologiaF/Tarea2/dVW.png"
       inkscape:export-xdpi="96"
       inkscape:export-ydpi="96">
      <use
         xlink:href="#g6818"
         x="112.001"
         y="83.457001"
         id="use1117"
         width="100%"
         height="100%" />
    </g>
    <g
       fill="#000000"
       fill-opacity="1"
       id="g191"
       transform="matrix(1.0155656,0,0,1.0155656,-48.26213,9.3788475)"
       inkscape:export-filename="/home/bedw/Documents/Universidad/MeteorologiaF/Tarea2/dVW.png"
       inkscape:export-xdpi="96"
       inkscape:export-ydpi="96">
      <use
         xlink:href="#g7314"
         x="121.064"
         y="81.962997"
         id="use8216"
         width="100%"
         height="100%" />
    </g>
    <path
       id="path51557"
       style="fill:#000000;fill-opacity:0.12772363;stroke:#000000;stroke-width:0.264583;stroke-linecap:butt;stroke-linejoin:miter;stroke-miterlimit:4;stroke-dasharray:2.11666, 0.264583;stroke-dashoffset:0;stroke-opacity:1"
       d="M 128.63333,76.959787 H 70.164575 L 28.453908,101.04146 H 86.922659 L 128.63333,76.959787"
       inkscape:export-filename="/home/bedw/Documents/Universidad/MeteorologiaF/Tarea2/dVW.png"
       inkscape:export-xdpi="96"
       inkscape:export-ydpi="96"
       sodipodi:nodetypes="ccccc" />
    <path
       style="fill:none;stroke:#000000;stroke-width:0.264583;stroke-linecap:butt;stroke-linejoin:miter;stroke-miterlimit:4;stroke-dasharray:0.793749, 0.793749;stroke-dashoffset:0;stroke-opacity:1"
       d="m 28.453908,101.04146 -2e-6,32.51631"
       id="path52645"
       sodipodi:nodetypes="cc"
       inkscape:export-filename="/home/bedw/Documents/Universidad/MeteorologiaF/Tarea2/dVW.png"
       inkscape:export-xdpi="96"
       inkscape:export-ydpi="96" />
    <path
       style="fill:none;stroke:#000000;stroke-width:0.26458299;stroke-linecap:butt;stroke-linejoin:miter;stroke-opacity:1;stroke-miterlimit:4;stroke-dasharray:0.79374896,0.79374896;stroke-dashoffset:0"
       d="m 86.922659,101.04146 v 29.87048"
       id="path52647"
       inkscape:export-filename="/home/bedw/Documents/Universidad/MeteorologiaF/Tarea2/dVW.png"
       inkscape:export-xdpi="96"
       inkscape:export-ydpi="96" />
    <path
       style="fill:none;stroke:#000000;stroke-width:0.264583;stroke-linecap:butt;stroke-linejoin:miter;stroke-miterlimit:4;stroke-dasharray:0.793749, 0.793749;stroke-dashoffset:0;stroke-opacity:1"
       d="M 128.63333,76.959787 V 109.4761"
       id="path52649"
       sodipodi:nodetypes="cc"
       inkscape:export-filename="/home/bedw/Documents/Universidad/MeteorologiaF/Tarea2/dVW.png"
       inkscape:export-xdpi="96"
       inkscape:export-ydpi="96" />
    <path
       style="fill:none;stroke:#000000;stroke-width:0.264583px;stroke-linecap:butt;stroke-linejoin:miter;stroke-opacity:1"
       d="M 28.453908,133.55779 H 86.922659 L 128.63333,109.47612"
       id="path91"
       inkscape:export-filename="/home/bedw/Documents/Universidad/MeteorologiaF/Tarea2/dVW.png"
       inkscape:export-xdpi="96"
       inkscape:export-ydpi="96" />
    <path
       style="fill:none;stroke:#000000;stroke-width:0.264583;stroke-linecap:butt;stroke-linejoin:miter;stroke-miterlimit:4;stroke-dasharray:0.793749, 0.793749;stroke-dashoffset:0;stroke-opacity:1"
       d="M 70.164573,76.959787 V 109.4761"
       id="path52651"
       sodipodi:nodetypes="cc"
       inkscape:export-filename="/home/bedw/Documents/Universidad/MeteorologiaF/Tarea2/dVW.png"
       inkscape:export-xdpi="96"
       inkscape:export-ydpi="96" />
  </g>
</svg>
